<?xml version="1.0" encoding="utf-8"?>
<!-- Generator: Adobe Illustrator 19.0.0, SVG Export Plug-In . SVG Version: 6.00 Build 0)  -->
<svg version="1.1" id="Capa_1" xmlns="http://www.w3.org/2000/svg" xmlns:xlink="http://www.w3.org/1999/xlink" x="0px" y="0px"
	 viewBox="0 0 70.9 70.9" style="enable-background:new 0 0 70.9 70.9;" xml:space="preserve">
<style type="text/css">
	.st0{fill:#535284;}
</style>
<image style="display:none;overflow:visible;enable-background:new    ;" width="512" height="512" xlink:href="24EFEDEA.png"  transform="matrix(0.6951 0 0 0.6951 -143 -142.16)">
</image>
<g>
	<path class="st0" d="M1.8,33.5c9.9-9.9,19.8-19.8,29.6-29.6c0.3-0.3,1.7-1.8,4.1-1.8c2,0,3.4,1.1,3.8,1.4c10,9.9,20,19.9,30,29.8
		c0.3,0.3,1.6,1.8,1.6,4.1c0,1.9-0.9,3.2-1.2,3.6c-1.4,1.4-2.8,2.8-4.1,4.2c-0.4,0.3-1.8,1.4-3.8,1.4c-1.9,0-3.2-0.9-3.6-1.2
		c-4.6-4.6-9.1-9.1-13.7-13.7c0,10.7,0,21.3,0,32c0,0.5-0.2,1.8-1.2,3c-1.3,1.6-3,1.9-3.4,2c-2.7,0-5.4,0-8.1,0
		c-0.4-0.1-2.2-0.3-3.4-1.9c-1-1.2-1.1-2.6-1.1-3c0-10.7,0-21.4,0-32.1c-4.5,4.5-9,8.9-13.5,13.4c-0.3,0.3-1.7,1.5-3.9,1.6
		c-2.2,0-3.6-1.2-3.9-1.5c-1.2-1.3-2.5-2.6-3.7-3.8C2,41,0.9,39.7,0.8,37.7C0.2,35.4,1.5,33.9,1.8,33.5z"/>
</g>
</svg>
