<?xml version="1.0" encoding="utf-8"?>
<!-- Generator: Adobe Illustrator 19.0.0, SVG Export Plug-In . SVG Version: 6.00 Build 0)  -->
<svg version="1.1" xmlns="http://www.w3.org/2000/svg" xmlns:xlink="http://www.w3.org/1999/xlink" x="0px" y="0px"
	 viewBox="0 -0.1 71 71" style="enable-background:new 0 -0.1 71 71;" xml:space="preserve">
<style type="text/css">
	.st0{display:none;}
	.st1{fill:#535284;}
</style>
<g id="Capa_3" class="st0">
	
		<image style="display:inline;overflow:visible;" width="512" height="512" xlink:href="angle-arrow-down.png"  transform="matrix(0.1387 0 0 0.1387 -6.557465e-003 0.3634)">
	</image>
</g>
<g id="Capa_2">
	<path class="st1" d="M35.5,43.9c9.4-9.4,18.8-18.8,28.3-28.3c0.2-0.1,0.6-0.4,1.3-0.5c0.7,0,1.2,0.3,1.4,0.5
		c1.4,1.4,2.8,2.8,4.2,4.2c0.1,0.2,0.3,0.5,0.4,1c0.1,0.8-0.2,1.3-0.4,1.5C59.4,33.5,48.3,44.7,37.1,55.8c-0.1,0.1-0.7,0.7-1.6,0.7
		c-1,0-1.5-0.6-1.6-0.7C22.8,44.8,11.7,33.7,0.6,22.6C0.5,22.5,0,22,0,21.1c0-0.9,0.5-1.4,0.6-1.5c1.2-1.2,2.5-2.5,3.7-3.7
		c0.1-0.1,0.6-0.7,1.6-0.7c0.9,0,1.4,0.6,1.5,0.7C16.8,25.2,26.1,34.5,35.5,43.9z"/>
</g>
</svg>
