<?xml version="1.0" encoding="utf-8"?>
<!-- Generator: Adobe Illustrator 19.0.0, SVG Export Plug-In . SVG Version: 6.00 Build 0)  -->
<svg version="1.1" id="Capa_1" xmlns="http://www.w3.org/2000/svg" xmlns:xlink="http://www.w3.org/1999/xlink" x="0px" y="0px"
	 viewBox="-27 27.9 16 16" style="enable-background:new -27 27.9 16 16;" xml:space="preserve">
<style type="text/css">
	.st0{display:none;}
	.st1{display:inline;}
	.st2{fill:#FFFFFF;}
</style>
<g id="Capa_1_1_" class="st0">
	
		<image style="display:inline;overflow:visible;enable-background:new    ;" width="512" height="512" xlink:href="remove-button.png"  transform="matrix(2.209709e-002 -2.209709e-002 2.209709e-002 2.209709e-002 -30.3137 35.87)">
	</image>
	<g id="Menú" transform="translate(-14.000000, -15.000000)" class="st1">
		<g id="menu">
			<path id="ico-menu" class="st2" d="M23,49.6c0.6,0,1,0.4,1,1c0,0.6-0.4,1-1,1H9c-0.6,0-1-0.4-1-1c0-0.6,0.4-1,1-1H23z M9,45.6
				c-0.6,0-1-0.4-1-1c0-0.6,0.4-1,1-1h14c0.6,0,1,0.4,1,1c0,0.6-0.4,1-1,1H9z M23,55.6c0.6,0,1,0.4,1,1c0,0.6-0.4,1-1,1H9
				c-0.6,0-1-0.4-1-1c0-0.6,0.4-1,1-1H23z"/>
		</g>
	</g>
</g>
<path class="st2" d="M-24.6,30.2c-3.1,3.1-3.1,8.2,0,11.3c3.1,3.1,8.2,3.1,11.3,0c3.1-3.1,3.1-8.2,0-11.3S-21.5,27.1-24.6,30.2z
	 M-14.2,40.7c-2.6,2.6-7.1,2.6-9.7,0s-2.6-7,0-9.6s7.1-2.8,9.7,0C-11.4,33.7-11.4,38.1-14.2,40.7z"/>
<path class="st2" d="M-17,35.9l1.5-1.5c0.1-0.1,0.1-0.3,0-0.4l-1.5-1.5c-0.1-0.1-0.3-0.1-0.5,0l-1.4,1.4l-1.5-1.4
	c-0.1-0.1-0.3-0.1-0.4,0l-1.5,1.5c-0.1,0.1-0.1,0.3,0,0.4l1.4,1.5l-1.4,1.5c-0.1,0.1-0.1,0.3,0,0.4l1.5,1.5c0.1,0.1,0.3,0.1,0.4,0
	l1.5-1.4l1.5,1.5c0.1,0.1,0.3,0.1,0.4,0l1.5-1.5c0.1-0.1,0.1-0.3,0-0.4L-17,35.9z"/>
</svg>
