<?xml version="1.0" encoding="utf-8"?>
<!-- Generator: Adobe Illustrator 19.0.0, SVG Export Plug-In . SVG Version: 6.00 Build 0)  -->
<svg version="1.1" xmlns="http://www.w3.org/2000/svg" xmlns:xlink="http://www.w3.org/1999/xlink" x="0px" y="0px"
	 viewBox="0 0 70.9 70.9" style="enable-background:new 0 0 70.9 70.9;" xml:space="preserve">
<style type="text/css">
	.st0{display:none;}
	.st1{display:inline;}
	.st2{fill:#535284;}
</style>
<g id="Capa_1" class="st0">
	<g class="st1">
		<path class="st2" d="M1.8,33.5c9.9-9.9,19.8-19.8,29.6-29.6c0.3-0.3,1.7-1.8,4.1-1.8c2,0,3.4,1.1,3.8,1.4c10,9.9,20,19.9,30,29.8
			c0.3,0.3,1.6,1.8,1.6,4.1c0,1.9-0.9,3.2-1.2,3.6c-1.4,1.4-2.8,2.8-4.1,4.2c-0.4,0.3-1.8,1.4-3.8,1.4c-1.9,0-3.2-0.9-3.6-1.2
			c-4.6-4.6-9.1-9.1-13.7-13.7c0,10.7,0,21.3,0,32c0,0.5-0.2,1.8-1.2,3c-1.3,1.6-3,1.9-3.4,2c-2.7,0-5.4,0-8.1,0
			c-0.4-0.1-2.2-0.3-3.4-1.9c-1-1.2-1.1-2.6-1.1-3c0-10.7,0-21.4,0-32.1c-4.5,4.5-9,8.9-13.5,13.4c-0.3,0.3-1.7,1.5-3.9,1.6
			c-2.2,0-3.6-1.2-3.9-1.5c-1.2-1.3-2.5-2.6-3.7-3.8C2,41,0.9,39.7,0.8,37.7C0.2,35.4,1.5,33.9,1.8,33.5z"/>
	</g>
</g>
<g id="Capa_2">
	<path class="st2" d="M70.3,44.2C59.2,33.2,48.2,22.1,37.1,11c-0.1-0.1-0.7-0.7-1.6-0.7c-1,0-1.5,0.6-1.6,0.7
		C22.7,22.1,11.5,33.3,0.3,44.5C0.2,44.6-0.1,45.2,0,46c0.1,0.5,0.2,0.8,0.4,1c1.4,1.4,2.8,2.8,4.2,4.2c0.1,0.1,0.7,0.5,1.4,0.5
		c0.7,0,1.1-0.3,1.3-0.5c7.8-7.8,15.7-15.7,23.5-23.5c0,22.8,0,39.4,0.1,41c0,0.4,0.1,1.1,0.6,1.6c0.6,0.7,1.5,0.6,1.6,0.6
		c1.8,0,3.5,0,5.3,0c0.1,0,0.9,0,1.5-0.6c0.5-0.5,0.6-1.2,0.6-1.5c0.1-1.4,0-18.2-0.2-41.1c7.8,7.8,15.6,15.5,23.3,23.3
		c0.1,0.1,0.6,0.7,1.5,0.7c0.9,0,1.5-0.6,1.6-0.7c1.2-1.2,2.5-2.5,3.7-3.7c0.1-0.1,0.6-0.6,0.6-1.5C70.9,44.9,70.4,44.3,70.3,44.2z"
		/>
</g>
</svg>
