<?xml version="1.0" encoding="utf-8"?>
<!-- Generator: Adobe Illustrator 19.0.0, SVG Export Plug-In . SVG Version: 6.00 Build 0)  -->
<svg version="1.1" id="Capa_2" xmlns="http://www.w3.org/2000/svg" xmlns:xlink="http://www.w3.org/1999/xlink" x="0px" y="0px"
	 viewBox="0 1 71 71" style="enable-background:new 0 1 71 71;" xml:space="preserve">
<style type="text/css">
	.st0{fill:#535284;}
</style>
<g>
	<path class="st0" d="M65.1,15.3c1.5,1.4,2.9,2.8,4.4,4.3c0.3,0.3,1.3,1.5,1.5,3.3c0.2,2-0.8,3.5-1.1,3.8
		C59.6,37,49.4,47.3,39.2,57.5c-0.3,0.3-1.7,1.5-3.8,1.4c-2-0.1-3.3-1.2-3.6-1.5c-10.1-10-20.2-20.1-30.2-30.1C1.3,27,0,25.6,0,23.5
		c0-1.8,0.8-3,1.1-3.4c1.4-1.5,2.8-3,4.2-4.4c0.2-0.3,1.7-1.6,3.9-1.6s3.7,1.3,4,1.6c7.4,7.4,14.8,14.9,22.3,22.4
		c7.5-7.5,14.9-15,22.4-22.5c0.3-0.3,1.6-1.5,3.7-1.5C63.5,14.1,64.8,15,65.1,15.3z"/>
</g>
</svg>
