<?xml version="1.0" encoding="utf-8"?>
<!-- Generator: Adobe Illustrator 19.0.0, SVG Export Plug-In . SVG Version: 6.00 Build 0)  -->
<svg version="1.1" xmlns="http://www.w3.org/2000/svg" xmlns:xlink="http://www.w3.org/1999/xlink" x="0px" y="0px"
	 viewBox="0 0 16 16" style="enable-background:new 0 0 16 16;" xml:space="preserve">
<style type="text/css">
	.st0{display:none;}
	.st1{display:inline;}
	.st2{fill:#FFFFFF;}
</style>
<g id="Capa_1" class="st0">
	
		<image style="display:inline;overflow:visible;" width="512" height="512" xlink:href="remove-button.png"  transform="matrix(2.209709e-002 -2.209709e-002 2.209709e-002 2.209709e-002 -3.3137 8)">
	</image>
	<g id="Menú" transform="translate(-14.000000, -15.000000)" class="st1">
		<g id="menu">
			<path id="ico-menu" class="st2" d="M50,21.7c0.6,0,1,0.4,1,1s-0.4,1-1,1H36c-0.6,0-1-0.4-1-1s0.4-1,1-1H50z M36,17.7
				c-0.6,0-1-0.4-1-1s0.4-1,1-1h14c0.6,0,1,0.4,1,1s-0.4,1-1,1H36z M50,27.7c0.6,0,1,0.4,1,1s-0.4,1-1,1H36c-0.6,0-1-0.4-1-1
				s0.4-1,1-1H50z"/>
		</g>
	</g>
</g>
<g id="Capa_2">
	<g>
		<path class="st2" d="M2.3,2.3c-3.1,3.1-3.1,8.2,0,11.3s8.2,3.1,11.3,0s3.1-8.2,0-11.3S5.5-0.8,2.3,2.3z M12,12
			c-2.2,2.2-5.9,2.2-8.1,0C1.7,9.8,1.7,6.2,3.9,4S9.8,1.7,12,4C14.3,6.2,14.3,9.8,12,12z"/>
		<path class="st2" d="M9.4,4.6L8,6L6.5,4.6c-0.1-0.1-0.3-0.1-0.4,0L4.6,6.1c-0.1,0.1-0.1,0.3,0,0.4L6,8L4.6,9.5
			c-0.1,0.1-0.1,0.3,0,0.4l1.5,1.5c0.1,0.1,0.3,0.1,0.4,0L8,10l1.5,1.5c0.1,0.1,0.3,0.1,0.4,0l1.5-1.5c0.1-0.1,0.1-0.3,0-0.4L9.9,8
			l1.5-1.5c0.1-0.1,0.1-0.3,0-0.4L9.9,4.6C9.8,4.5,9.6,4.5,9.4,4.6z"/>
	</g>
</g>
</svg>
